#N canvas 65 43 1304 789 12;
#X declare -path scope3d~ -path perlin_3d~ -lib else -path else;
#X obj 417 171 scope3d~ -30 30 140 140 empty empty empty empty empty 1024 2 empty empty empty empty empty empty empty empty;
#X obj 469 147 perlin_3d~ 1;
#X text 52 317 scanning from -1..1 in one dimension of perlin space, f 20;
#X obj 598 171 scope3d~ -30 30 140 140 empty empty empty empty empty 1024 2 empty empty empty empty empty empty empty empty;
#X obj 677 75 *~ 256;
#X obj 677 51 phasor~ 0.001;
#X obj 55 75 tri~ 50;
#X obj 236 75 tri~ 50;
#X obj 650 147 perlin_3d~ 1;
#X obj 1176 114 loadbang;
#X obj 826 171 scope3d~ -30 30 140 140 empty empty empty empty empty 256 4 empty empty empty empty empty empty empty empty;
#X obj 826 75 phasor~ 50;
#X obj 826 99 sin~;
#X obj 930 99 cos~;
#X obj 315 99 *~ 256;
#X obj 315 75 phasor~ 0.001;
#X obj 877 147 perlin_3d~ 1;
#N canvas 200 100 190 200 (subpatch) 0;
#X obj 50 70 inlet~;
#X obj 50 140 outlet~;
#X connect 0 0 1 0;
#X restore 814 147 pd;
#X text 52 33 perlin_3d~ applications;
#X obj -2 412 cnv 19 1300 360 empty empty empty 20 12 0 12 #ececec #404040 0;
#X obj 55 578 scope3d~ empty empty 140 140 empty empty empty 0 empty 240 3 empty empty empty empty empty empty empty empty;
#X obj 236 578 scope3d~ empty empty 140 140 empty empty empty 0 empty 240 3 empty empty empty empty empty empty empty empty;
#X obj 294 506 *~ 256;
#X obj 294 482 phasor~ 0.001;
#X obj 417 578 scope3d~ -30 30 140 140 empty empty empty empty empty 1024 2 empty empty empty empty empty empty empty empty;
#X obj 598 578 scope3d~ -30 30 140 140 empty empty empty empty empty 1024 2 empty empty empty empty empty empty empty empty;
#X obj 677 482 *~ 256;
#X obj 677 458 phasor~ 0.001;
#X obj 55 482 tri~ 50;
#X obj 236 482 tri~ 50;
#X obj 288 554 perlin_3d~ 3;
#X obj 469 554 perlin_3d~ 3;
#X obj 650 554 perlin_3d~ 3;
#X obj 107 147 perlin_3d~ 1;
#X obj 107 554 perlin_3d~ 3;
#N canvas 200 100 190 200 (subpatch) 0;
#X obj 50 70 inlet~;
#X obj 50 140 outlet~;
#X obj 116 140 outlet~;
#X connect 0 0 1 0;
#X connect 0 0 2 0;
#X restore 814 392 pd;
#X obj 1007 171 scope3d~ -30 30 140 140 empty empty empty empty empty 256 4 empty empty empty empty empty empty empty empty;
#X obj 1007 99 sin~;
#X obj 1112 99 cos~;
#X obj 1085 75 *~ 256;
#X obj 1007 75 phasor~ 50;
#X obj 1058 147 perlin_3d~ 5;
#X obj 1085 51 phasor~ 0.01;
#X obj 814 473 else/oscope~ 160 100 16 3 120 -1 1 0 0 0 0 30 30 30 190 190 190 160 160 160 0 empty;
#X obj 1176 559 t a;
#X obj 1013 416 out~;
#N canvas 200 100 190 200 (subpatch) 0;
#X obj 50 70 inlet~;
#X obj 50 140 outlet~;
#X connect 0 0 1 0;
#X restore 1002 147 pd;
#N canvas 200 100 190 200 (subpatch) 0;
#X obj 50 70 inlet~;
#X obj 50 140 outlet~;
#X obj 116 140 outlet~;
#X connect 0 0 1 0;
#X connect 0 0 2 0;
#X restore 995 392 pd;
#X obj 995 473 else/oscope~ 160 100 16 3 120 -1 1 0 0 0 0 30 30 30 190 190 190 160 160 160 0 empty;
#X obj 832 416 out~;
#X text 54 431 MORE OCTAVES (meaning that attenuated signals from downscaled noises get added to the result. downscaled by 1/2 \, 1/4 \, ...), f 61;
#X text 414 317 scanning the area of a square, f 20;
#X text 824 317 scanning a circular movement results in a continuous waveform, f 20;
#X text 1006 317 continuous displacement in vertical direction and more octaves create evolving waveforms and richer timbre, f 23;
#X text 239 317 ... additionaly moving slowly in a second dimension, f 19;
#X text 595 317 ... additionally moving slowly in the third dimension, f 20;
#X obj 704 99 tri~ 720;
#X obj 598 99 tri~ 24;
#X msg 1176 138 interval 2 \, buffer 1024, f 11;
#X obj 523 99 tri~ 720;
#X obj 505 506 tri~ 720;
#X obj 686 506 tri~ 720;
#X obj 417 99 tri~ 24;
#X obj 417 506 tri~ 24;
#X obj 598 506 tri~ 24;
#X obj 236 171 scope3d~ empty empty 140 140 empty empty empty 0 empty 240 3 empty empty empty empty empty empty empty empty;
#X obj 288 147 perlin_3d~ 1;
#X obj 814 699 declare -path scope3d~ -path perlin_3d~ -lib else -path else;
#X obj 55 171 scope3d~ empty empty 140 140 empty empty empty 0 empty 240 3 empty empty empty empty empty empty empty empty;
#X connect 1 0 0 1;
#X connect 4 0 8 1;
#X connect 5 0 4 0;
#X connect 6 0 33 0;
#X connect 6 0 68 0;
#X connect 7 0 65 0;
#X connect 7 0 66 0;
#X connect 8 0 3 1;
#X connect 9 0 58 0;
#X connect 11 0 12 0;
#X connect 11 0 13 0;
#X connect 12 0 10 0;
#X connect 12 0 16 0;
#X connect 13 0 10 2;
#X connect 13 0 16 2;
#X connect 14 0 66 1;
#X connect 15 0 14 0;
#X connect 16 0 10 1;
#X connect 16 0 17 0;
#X connect 17 0 35 0;
#X connect 22 0 30 1;
#X connect 23 0 22 0;
#X connect 26 0 32 1;
#X connect 27 0 26 0;
#X connect 28 0 20 0;
#X connect 28 0 34 0;
#X connect 29 0 21 0;
#X connect 29 0 30 0;
#X connect 30 0 21 1;
#X connect 31 0 24 1;
#X connect 32 0 25 1;
#X connect 33 0 68 1;
#X connect 34 0 20 1;
#X connect 35 0 43 0;
#X connect 35 1 49 0;
#X connect 37 0 36 0;
#X connect 37 0 41 0;
#X connect 38 0 36 2;
#X connect 38 0 41 2;
#X connect 39 0 41 1;
#X connect 40 0 37 0;
#X connect 40 0 38 0;
#X connect 41 0 36 1;
#X connect 41 0 46 0;
#X connect 42 0 39 0;
#X connect 44 0 24 0;
#X connect 44 0 25 0;
#X connect 46 0 47 0;
#X connect 47 0 48 0;
#X connect 47 1 45 0;
#X connect 56 0 8 2;
#X connect 56 0 3 2;
#X connect 57 0 8 0;
#X connect 57 0 3 0;
#X connect 58 0 44 0;
#X connect 58 0 0 0;
#X connect 58 0 3 0;
#X connect 59 0 0 2;
#X connect 59 0 1 2;
#X connect 60 0 24 2;
#X connect 60 0 31 2;
#X connect 61 0 25 2;
#X connect 61 0 32 2;
#X connect 62 0 0 0;
#X connect 62 0 1 0;
#X connect 63 0 24 0;
#X connect 63 0 31 0;
#X connect 64 0 25 0;
#X connect 64 0 32 0;
#X connect 66 0 65 1;
